# xmcd
#
# Track frame offsets: 
#        150
#        21936
#        40097
#        60141
#        80962
#        98790
#        113942
#        135669
#        145783
#        161458
#        178781
#        202672
#
# Disc length: 2984 seconds
#
# Revision: 0
# Processed by: cddbd v1.5.2PL0 Copyright (c) Steve Scherf et al.
# Submitted via: ExactAudioCopy v1.0b4
#
DISCID=980ba60c
DTITLE=Norman Taylor - Delaware to the Delta
DYEAR=2016
DGENRE=Blues
TTITLE0=Grown Folks
TTITLE1=Worried Man
TTITLE2=Delaware to the Delta
TTITLE3=Don't You Worry About Me
TTITLE4=Special Rider Blues
TTITLE5=Just Find Your Faith
TTITLE6=Built for Comfort
TTITLE7=Due South
TTITLE8=Road to Redemption
TTITLE9=The River
TTITLE10=Sundays Dream
TTITLE11=Motivation
EXTD=
EXTT0=
EXTT1=
EXTT2=
EXTT3=
EXTT4=
EXTT5=
EXTT6=
EXTT7=
EXTT8=
EXTT9=
EXTT10=
EXTT11=
PLAYORDER=
